<svg width="900" height="900" viewBox="-450,-450,900,900"><g font-size="10" font-family="sans-serif"><g><path fill="#1f77b4" fill-opacity="0.8" d="M1.8982025386783973e-14,-310A310,310,0,0,1,4.356732715662282,-309.9693837785343L4.216192950640918,-299.97037139858156A300,300,0,0,0,1.8369701987210297e-14,-300Z"></path><text dy="0.35em" transform="
        rotate(-89.59736997558905)
        translate(315)
        
      ">Anhui</text><title>Anhui
        0.000250915 outgoing →
        0.002004301 incoming ←</title></g><g><path fill="#aec7e8" fill-opacity="0.8" d="M14.684712040358141,-309.651996977723A310,310,0,0,1,31.667114026297078,-308.37832914983744L30.64559421899717,-298.43064111274595A300,300,0,0,0,14.211011651959492,-299.6632228816674Z"></path><text dy="0.35em" transform="
        rotate(-85.71088800785662)
        translate(315)
        
      ">Beijing</text><title>Beijing
        0.000564862 outgoing →
        0.008251403899999997 incoming ←</title></g><g><path fill="#ff9896" fill-opacity="0.8" d="M41.92689698822381,-307.1516487159704A310,310,0,0,1,48.20629647435553,-306.2289225076994L46.65125465260213,-296.35057016874134A300,300,0,0,0,40.57441644021659,-297.2435310154552Z"></path><text dy="0.35em" transform="
        rotate(-81.64049886846713)
        translate(315)
        
      ">Chongqing</text><title>Chongqing
        0.0006390374999999999 outgoing →
        0.0026462815 incoming ←</title></g><g><path fill="#2ca02c" fill-opacity="0.8" d="M58.38525823147226,-304.4522320845165A310,310,0,0,1,80.94652963530625,-299.2451492338689L78.33535125997379,-289.5920799037441A300,300,0,0,0,56.50186280465057,-294.6311923398547Z"></path><text dy="0.35em" transform="
        rotate(-77.00385067648281)
        translate(315)
        
      ">Fujian</text><title>Fujian
        0.0119747309057 outgoing →
        0.000013271819999999999 incoming ←</title></g><g><path fill="#9467bd" fill-opacity="0.8" d="M90.87455472296186,-296.38119930910494A310,310,0,0,1,91.47987754510956,-296.1949223135531L88.52891375333184,-286.6402474002127A300,300,0,0,0,87.94311747383405,-286.8205154604242Z"></path><text dy="0.35em" transform="
        rotate(-72.895211451664)
        translate(315)
        
      ">Gansu</text><title>Gansu
        0.000129683 outgoing →
        0.000198146 incoming ←</title></g><g><path fill="#d62728" fill-opacity="0.8" d="M101.30039591147211,-292.9816202224621A310,310,0,0,1,111.71857623738401,-289.16943082471875L108.11475119746841,-279.8413846690827A300,300,0,0,0,98.03264120465043,-283.5306002152859Z"></path><text dy="0.35em" transform="
        rotate(-69.9015675745568)
        translate(315)
        
      ">Guangdong</text><title>Guangdong
        0.005740686931 outgoing →
        0.0000019908173499999997 incoming ←</title></g><g><path fill="#c5b0d5" fill-opacity="0.8" d="M121.29371223849202,-285.28553305663064A310,310,0,0,1,121.31256117385601,-285.2775183947018L117.39925274889292,-276.07501780132435A300,300,0,0,0,117.38101184370196,-276.08277392577156Z"></path><text dy="0.35em" transform="
        rotate(-66.96455912161906)
        translate(315)
        
      ">Guangxi</text><title>Guangxi
        0.000010602 outgoing →
        0 incoming ←</title></g><g><path fill="#8c564b" fill-opacity="0.8" d="M130.7526612853143,-281.07604232094894A310,310,0,0,1,134.9042012874764,-279.1072490548894L130.55245285884814,-270.1037894079575A300,300,0,0,0,126.53483350191706,-272.0090732138215Z"></path><text dy="0.35em" transform="
        rotate(-64.62819353914708)
        translate(315)
        
      ">Guizhou</text><title>Guizhou
        0.00205338494 outgoing →
        0.00032496494 incoming ←</title></g><g><path fill="#ffbb78" fill-opacity="0.8" d="M144.13111362819905,-274.45622981505664A310,310,0,0,1,247.09730762978106,-187.1975442203058L239.1264267384978,-181.15891376158626A300,300,0,0,0,139.48172286599907,-265.602803046829Z"></path><text dy="0.35em" transform="
        rotate(-49.7203962949613)
        translate(315)
        
      ">Hainan</text><title>Hainan
        0.00195519 outgoing →
        0.068470662 incoming ←</title></g><g><path fill="#8c564b" fill-opacity="0.8" d="M253.19880672253603,-178.858503500068A310,310,0,0,1,253.5178209651556,-178.40603816317235L245.33982674047317,-172.65100467403778A300,300,0,0,0,245.03110327987358,-173.08887435490453Z"></path><text dy="0.35em" transform="
        rotate(-35.186051081386715)
        translate(315)
        
      ">Hebei</text><title>Hebei
        0.00011697130000000001 outgoing →
        0.0001695947 incoming ←</title></g><g><path fill="#c49c94" fill-opacity="0.8" d="M259.3227574999553,-169.85790368016254A310,310,0,0,1,281.24547169144216,-130.38782402148675L272.1730371207505,-126.18176518208396A300,300,0,0,0,250.95750725802128,-164.3786164646734Z"></path><text dy="0.35em" transform="
        rotate(-29.04893785835374)
        translate(315)
        
      ">Heilongjiang</text><title>Heilongjiang
        0.015019858 outgoing →
        0.00837132 incoming ←</title></g><g><path fill="#9467bd" fill-opacity="0.8" d="M285.4346946563114,-120.94227997874965A310,310,0,0,1,290.0203026549038,-109.49074868662655L280.6648090208746,-105.95878905157407A300,300,0,0,0,276.2271238609465,-117.0409161084674Z"></path><text dy="0.35em" transform="
        rotate(-21.82295283011466)
        translate(315)
        
      ">Henan</text><title>Henan
        0.00065781358565 outgoing →
        0.0057277538999999985 incoming ←</title></g><g><path fill="#2ca02c" fill-opacity="0.8" d="M293.508210974343,-99.76437285243935A310,310,0,0,1,299.38310127918083,-80.43481005422794L289.72558188307823,-77.84013876215607A300,300,0,0,0,284.0402041687191,-96.5461672765542Z"></path><text dy="0.35em" transform="
        rotate(-16.90575305651626)
        translate(315)
        
      ">Hubei</text><title>Hubei
        0.004262723038999999 outgoing →
        0.00619646 incoming ←</title></g><g><path fill="#e377c2" fill-opacity="0.8" d="M301.8974565853717,-70.41253941794473A310,310,0,0,1,301.9019787729291,-70.39314748602919L292.16320526412494,-68.12240079293149A300,300,0,0,0,292.1588289535855,-68.14116717865619Z"></path><text dy="0.35em" transform="
        rotate(-13.12674637754948)
        translate(315)
        
      ">Hunan</text><title>Hunan
        0.000010307017000789732 outgoing →
        3.8988333e-14 incoming ←</title></g><g><path fill="#f7b6d2" fill-opacity="0.8" d="M304.0802747288228,-60.29250799928325A310,310,0,0,1,304.6491050070057,-57.34913093003609L294.82171452290874,-55.49915896455106A300,300,0,0,0,294.27123360853824,-58.347588386403146Z"></path><text dy="0.35em" transform="
        rotate(-10.938007935155795)
        translate(315)
        
      ">Inner Mongolia</text><title>Inner Mongolia
        0.000703937 outgoing →
        0.000847817 incoming ←</title></g><g><path fill="#1f77b4" fill-opacity="0.8" d="M306.3911548852472,-47.16418353034899A310,310,0,0,1,309.8581919201824,-9.37554798160783L299.86276637437004,-9.07311094994306A300,300,0,0,0,296.50756924378766,-45.642758255176446Z"></path><text dy="0.35em" transform="
        rotate(-5.242105228025565)
        translate(315)
        
      ">Jiangsu</text><title>Jiangsu
        0.0156124295 outgoing →
        0.0040422470000000005 incoming ←</title></g><g><path fill="#7f7f7f" fill-opacity="0.8" d="M309.99852481435954,0.9563539726059374A310,310,0,0,1,309.99836217094634,1.007696050794009L299.9984150041416,0.9751897265748475A300,300,0,0,0,299.9985724009931,0.9255038444573588Z"></path><text dy="0.35em" transform="
        rotate(0.1815031704699379)
        translate(315)
        
      ">Jiangxi</text><title>Jiangxi
        0.000003306244 outgoing →
        0.000023269691 incoming ←</title></g><g><path fill="#c7c7c7" fill-opacity="0.8" d="M309.792573156097,11.338501546690335A310,310,0,0,1,309.7414279448559,12.65890258599257L299.7497689788928,12.25055088967023A300,300,0,0,0,299.79926434461,10.97274343228097Z"></path><text dy="0.35em" transform="
        rotate(2.218220384427994)
        translate(315)
        
      ">Jilin</text><title>Jilin
        0.00017719 outgoing →
        0.000506792 incoming ←</title></g><g><path fill="#98df8a" fill-opacity="0.8" d="M309.14748002388615,22.974672900411658A310,310,0,0,1,296.83911852903816,89.36743092930239L287.26366309261755,86.48461057674425A300,300,0,0,0,299.17498066827693,22.23355441975322Z"></path><text dy="0.35em" transform="
        rotate(10.502662411097631)
        translate(315)
        
      ">Liaoning</text><title>Liaoning
        0.0335722242 outgoing →
        0.001449181 incoming ←</title></g><g><path fill="#bcbd22" fill-opacity="0.8" d="M293.6958604324212,99.21059199934115A310,310,0,0,1,293.64761537480945,99.35329881130254L284.1751116530414,96.14835368835729A300,300,0,0,0,284.2218004184722,96.01025032194305Z"></path><text dy="0.35em" transform="
        rotate(18.67891236908666)
        translate(315)
        
      ">Ningxia</text><title>Ningxia
        0.0000348332 outgoing →
        0.000043142119999999996 incoming ←</title></g><g><path fill="#bcbd22" fill-opacity="0.8" d="M290.17332954633656,109.08454895168772A310,310,0,0,1,289.63522381298714,110.50537148392763L280.2921520770843,106.94068208122029A300,300,0,0,0,280.8128995609709,105.56569253389135Z"></path><text dy="0.35em" transform="
        rotate(20.743096030213465)
        translate(315)
        
      ">Qinghai</text><title>Qinghai
        0.000203559 outgoing →
        0.000582869 incoming ←</title></g><g><path fill="#dbdb8d" fill-opacity="0.8" d="M285.79149996492265,120.09670498310774A310,310,0,0,1,285.79103869455736,120.09780265219686L276.57197293021676,116.22367998599697A300,300,0,0,0,276.5724193208929,116.22261772558814Z"></path><text dy="0.35em" transform="
        rotate(22.793468570235845)
        translate(315)
        
      ">Shaanxi</text><title>Shaanxi
        0 outgoing →
        6.16307e-7 incoming ←</title></g><g><path fill="#e377c2" fill-opacity="0.8" d="M281.62976181079273,129.55569174064152A310,310,0,0,1,278.1612066082929,136.84422946627518L269.1882644596383,132.4298994834921A300,300,0,0,0,272.54493078463815,125.3764758780402Z"></path><text dy="0.35em" transform="
        rotate(25.449392888504164)
        translate(315)
        
      ">Shandong</text><title>Shandong
        0.0040546884 outgoing →
        0.0001235633 incoming ←</title></g><g><path fill="#7f7f7f" fill-opacity="0.8" d="M273.4460572677916,146.03853520458097A310,310,0,0,1,26.979811919636553,308.8237195371836L26.109495406099892,298.8616640682422A300,300,0,0,0,264.62521671076604,141.3276147141106Z"></path><text dy="0.35em" transform="
        rotate(56.55617210437518)
        translate(315)
        
      ">Shanghai</text><title>Shanghai
        0.025472463387 outgoing →
        0.133887414 incoming ←</title></g><g><path fill="#17becf" fill-opacity="0.8" d="M16.672606751815593,309.5513272207039A310,310,0,0,1,15.8682212814936,309.59360386377745L15.356343175638967,299.6067134165588A300,300,0,0,0,16.134780727563477,299.56580053616506Z"></path><text dy="0.35em" transform="
        rotate(86.99143427941723)
        translate(315)
        
      ">Shanxi</text><title>Shanxi
        0.0000582473 outgoing →
        0.00035869529999999996 incoming ←</title></g><g><path fill="#17becf" fill-opacity="0.8" d="M5.541530589241917,309.9504661050351A310,310,0,0,1,-14.961482394347104,309.6387476472601L-14.478853930013326,299.6504009489614A300,300,0,0,0,5.362771537976049,299.9520639726146Z"></path><text dy="0.35em" transform="
        rotate(90.87103179033468)
        translate(315)
        rotate(180)
      " text-anchor="end">Sichuan</text><title>Sichuan
        0.00107459 outgoing →
        0.009541388 incoming ←</title></g><g><path fill="#ff7f0e" fill-opacity="0.8" d="M-25.27255157340982,308.96811831800596A310,310,0,0,1,-278.28015810654614,136.602172765281L-269.30337881278655,132.19565106317518A300,300,0,0,0,-24.457307974267568,299.0014048238767Z"></path><text dy="0.35em" transform="
        rotate(124.26534590385938)
        translate(315)
        rotate(180)
      " text-anchor="end">Tianjin</text><title>Tianjin
        0.0021057313000000005 outgoing →
        0.16362938700000002 incoming ←</title></g><g><path fill="#9edae5" fill-opacity="0.8" d="M-282.67813491540045,127.25200210900672A310,310,0,0,1,-282.6782649273388,127.25171329954374L-273.55961122000525,123.1468193221391A300,300,0,0,0,-273.55948540200046,123.14709881516781Z"></path><text dy="0.35em" transform="
        rotate(155.76438902215205)
        translate(315)
        rotate(180)
      " text-anchor="end">Xinjiang</text><title>Xinjiang
        6.62116e-9 outgoing →
        1.5732215999999998e-7 incoming ←</title></g><g><path fill="#9edae5" fill-opacity="0.8" d="M-286.7621743032344,117.76016044860596A310,310,0,0,1,-293.6243515449196,99.42203065631615L-284.15259826927706,96.21486837708015A300,300,0,0,0,-277.51178158377525,113.96144559542512Z"></path><text dy="0.35em" transform="
        rotate(159.48401638624014)
        translate(315)
        rotate(180)
      " text-anchor="end">Yunnan</text><title>Yunnan
        0.006454702 outgoing →
        0.003682028 incoming ←</title></g><g><path fill="#d62728" fill-opacity="0.8" d="M-296.77469601514605,89.581135319428A310,310,0,0,1,-303.28333743745776,64.18112832287345L-293.5000039717333,62.11076934471624A300,300,0,0,0,-287.2013187243349,86.69142127686581Z"></path><text dy="0.35em" transform="
        rotate(165.62745494206766)
        translate(315)
        rotate(180)
      " text-anchor="end">Zhejiang</text><title>Zhejiang
        0.01346793803 outgoing →
        0.000108505498 incoming ←</title></g><g><path fill="#ff7f0e" fill-opacity="0.8" d="M-305.2538370811546,54.0379028759624A310,310,0,0,1,-10.331419859394467,-309.82779372368924L-9.998148251026905,-299.83334876486055A300,300,0,0,0,-295.4069391107947,52.29474471867329Z"></path><text dy="0.35em" transform="
        rotate(219.02564770153333)
        translate(315)
        rotate(180)
      " text-anchor="end">unknown</text><title>unknown
        0.2748206117150383 outgoing →
        0 incoming ←</title></g></g><g><path fill="#ff7f0e" fill-opacity="0.8" d="M-294.5087077353512,51.629652991797975A299,299,0,0,1,-200.09917151033747,-222.17407940818958Q0,0,-29.321510783952615,287.5086937908949L-170.60515623144406,245.55015916762213L-259.2163139080658,127.7806816538208Q0,0,-294.5087077353512,51.629652991797975Z" style="mix-blend-mode: multiply;"><title>unknown → Tianjin 0.162790337</title></path><path fill="#ff7f0e" fill-opacity="0.8" d="M-199.35748095605317,-222.83984111207963A299,299,0,0,1,-90.20458697063553,-285.0686452233164Q0,0,137.8984530243252,-253.97837831889936L194.69506228645665,-226.9247291973106L230.06727725008722,-174.9001084583183Q0,0,-199.35748095605317,-222.83984111207963Z" style="mix-blend-mode: multiply;"><title>unknown → Hainan 0.068470662</title></path><path fill="#98df8a" fill-opacity="0.8" d="M298.1403842098869,22.656374449170077A299,299,0,0,1,288.9546900345747,76.85172156186772Q0,0,77.89526434488461,278.3043797582793L53.78243063281304,294.1231887410897L25.631951090619513,287.86108296066715Q0,0,298.1403842098869,22.656374449170077Z" style="mix-blend-mode: multiply;"><title>Liaoning → Shanghai 0.030076144</title></path><path fill="#ff7f0e" fill-opacity="0.8" d="M-89.25385877677608,-285.36774290983783A299,299,0,0,1,-42.11853564674692,-296.01862940526854Q0,0,122.58282519758176,261.7144454679167L104.52903965724435,280.1333251655972L78.82251114175035,278.0431832239529Q0,0,-89.25385877677608,-285.36774290983783Z" style="mix-blend-mode: multiply;"><title>unknown → Shanghai 0.026496833</title></path><path fill="#7f7f7f" fill-opacity="0.8" d="M263.50800558281895,141.29589871530257A299,299,0,0,1,239.63406154140318,178.81978791277822Q0,0,160.8489140956362,240.1012845327043L147.4789027315882,260.09800700714095L123.45452405188949,261.30438283947984Q0,0,263.50800558281895,141.29589871530257Z" style="mix-blend-mode: multiply;"><title>Shanghai → Shanghai 0.02442501</title></path><path fill="#c49c94" fill-opacity="0.8" d="M250.39368586348118,-163.41359208982684A299,299,0,0,1,263.2646492653718,-141.74880756881436Q0,0,181.24673472141885,225.10135750995286L177.5376903237755,240.5854702896648L161.64835662438847,239.56378858382277Q0,0,250.39368586348118,-163.41359208982684Z" style="mix-blend-mode: multiply;"><title>Heilongjiang → Shanghai 0.014062681</title></path><path fill="#d62728" fill-opacity="0.8" d="M-286.3875874507135,85.9252567884433A299,299,0,0,1,-292.04687765963575,64.1063276850091Q0,0,198.39110154981702,210.1474977863172L196.9146162175786,225.00140870644282L181.99606426489996,224.49595228441515Q0,0,-286.3875874507135,85.9252567884433Z" style="mix-blend-mode: multiply;"><title>Zhejiang → Shanghai 0.012634672</title></path><path fill="#1f77b4" fill-opacity="0.8" d="M295.5946178941672,-44.998020756487726A299,299,0,0,1,297.7206330678287,-27.63014016778224Q0,0,211.0034296010608,197.48051219446995L212.23288138679624,210.61387432516898L199.09048974013285,209.48502785410238Q0,0,295.5946178941672,-44.998020756487726Z" style="mix-blend-mode: multiply;"><title>Jiangsu → Shanghai 0.009926527</title></path><path fill="#2ca02c" fill-opacity="0.8" d="M56.80285996945436,-293.55482469087536A299,299,0,0,1,70.58500498082358,-290.54906138526263Q0,0,220.7058152028743,186.5742295592687L223.72580906575305,198.36270404961266L211.66052451583738,196.77607161868184Q0,0,56.80285996945436,-293.55482469087536Z" style="mix-blend-mode: multiply;"><title>Fujian → Shanghai 0.008105833</title></path><path fill="#9edae5" fill-opacity="0.8" d="M-276.77566069954173,113.12043866751998A299,299,0,0,1,-280.28719626311994,104.11574141770917Q0,0,-4.129251850790446,288.970498977236L-9.103664733895112,298.86137804743663L-13.466838103846221,288.68606525339044Q0,0,-276.77566069954173,113.12043866751998Z" style="mix-blend-mode: multiply;"><title>Yunnan → Sichuan 0.005722061</title></path><path fill="#d62728" fill-opacity="0.8" d="M98.17670564372168,-282.4222627006342A299,299,0,0,1,105.482919502632,-279.7755416279294Q0,0,226.08115547126525,180.02308502183158L231.46398926586497,189.27604622120452L221.3265020074306,185.83750834843545Q0,0,98.17670564372168,-282.4222627006342Z" style="mix-blend-mode: multiply;"><title>Guangdong → Shanghai 0.004705331</title></path><path fill="#ff7f0e" fill-opacity="0.8" d="M-41.13157471768896,-296.1573797176818A299,299,0,0,1,-34.60247385037429,-296.99102478599275Q0,0,277.24849053337334,-81.57373656371279L287.7534272202823,-81.23401456890903L278.9769462959819,-75.45106649590066Q0,0,-41.13157471768896,-296.1573797176818Z" style="mix-blend-mode: multiply;"><title>unknown → Hubei 0.004067335</title></path><path fill="#e377c2" fill-opacity="0.8" d="M271.4278062485317,125.41110794147998A299,299,0,0,1,269.1012430700983,130.3285117621155Q0,0,229.90393803911044,175.11476029766553L236.20110602728374,183.3304053109791L226.6799753048287,179.26848243849852Q0,0,271.4278062485317,125.41110794147998Z" style="mix-blend-mode: multiply;"><title>Shandong → Shanghai 0.003454383</title></path><path fill="#98df8a" fill-opacity="0.8" d="M288.69691280141444,77.81447512469967A299,299,0,0,1,287.4842620734291,82.18150071698581Q0,0,260.11119459477567,-125.94906290432944L270.0914558982619,-128.2638119297771L261.99040319532537,-121.99192036176353Q0,0,288.69691280141444,77.81447512469967Z" style="mix-blend-mode: multiply;"><title>Liaoning → Heilongjiang 0.002967209</title></path><path fill="#ff7f0e" fill-opacity="0.8" d="M-33.61231336524323,-297.10471620328866A299,299,0,0,1,-29.75654302693425,-297.5156267275489Q0,0,40.75788600024593,-286.1115075085079L44.08673102991746,-295.73190586593074L44.46483914699157,-285.558887236297Q0,0,-33.61231336524323,-297.10471620328866Z" style="mix-blend-mode: multiply;"><title>unknown → Chongqing 0.002615866</title></path><path fill="#1f77b4" fill-opacity="0.8" d="M297.81107936251277,-26.637586394700232A299,299,0,0,1,298.11213418980395,-23.025104751125518Q0,0,258.1333834425598,-129.95443952592154L267.8754542300529,-132.82974448911213L259.68992010170336,-126.81539889765334Q0,0,297.81107936251277,-26.637586394700232Z" style="mix-blend-mode: multiply;"><title>Jiangsu → Heilongjiang 0.002480302</title></path><path fill="#ff7f0e" fill-opacity="0.8" d="M-28.764660793715933,-297.6131621575606A299,299,0,0,1,-25.79343429423445,-297.88537853897594Q0,0,-0.282164987353745,288.99986225415387L-1.7837593046104492,298.9946792214591L-3.1659956977003394,288.98265773440824Q0,0,-28.764660793715933,-297.6131621575606Z" style="mix-blend-mode: multiply;"><title>unknown → Sichuan 0.002136115</title></path><path fill="#2ca02c" fill-opacity="0.8" d="M283.2533841399162,-95.75239095335995A299,299,0,0,1,284.19071831097017,-92.93350109564798Q0,0,276.1417440396816,-85.2451593858734L286.13141619195085,-86.77449318773694L276.97503831373655,-82.49744330040878Q0,0,283.2533841399162,-95.75239095335995Z" style="mix-blend-mode: multiply;"><title>Hubei → Hubei 0.002129125</title></path><path fill="#8c564b" fill-opacity="0.8" d="M126.56471265125761,-270.8918114515546A299,299,0,0,1,129.11539015270048,-269.68540195145147Q0,0,-272.68767052277667,95.72060564403876L-282.58736372746824,97.70047011943998L-273.57881123557377,93.14308370958248Q0,0,126.56471265125761,-270.8918114515546Z" style="mix-blend-mode: multiply;"><title>Guizhou → Yunnan 0.002049132</title></path><path fill="#ff7f0e" fill-opacity="0.8" d="M-24.800341574510814,-297.96970157683415A299,299,0,0,1,-22.140707615214197,-298.1791224520885Q0,0,256.521315929795,-133.1082810107858L266.0092308226319,-136.52871169520253L257.69876870663626,-130.81416057554168Q0,0,-24.800341574510814,-297.96970157683415Z" style="mix-blend-mode: multiply;"><title>unknown → Heilongjiang 0.001966632</title></path><path fill="#ffbb78" fill-opacity="0.8" d="M139.4577862739835,-264.48539817456833A299,299,0,0,1,141.79334627982908,-263.24066355859327Q0,0,26.496538915587596,-287.78278861928965L28.730805251430798,-297.6164323917689L29.042734676347408,-287.5369881641652Q0,0,139.4577862739835,-264.48539817456833Z" style="mix-blend-mode: multiply;"><title>Hainan → Beijing 0.00195519</title></path><path fill="#2ca02c" fill-opacity="0.8" d="M71.55310792004262,-290.3121643110787A299,299,0,0,1,73.97398690340164,-289.70476223496115Q0,0,23.133245819587586,-288.0726521866498L25.177448783244255,-297.9380742247743L25.537117527101575,-287.8695114603264Q0,0,71.55310792004262,-290.3121643110787Z" style="mix-blend-mode: multiply;"><title>Fujian → Beijing 0.001874351</title></path><path fill="#2ca02c" fill-opacity="0.8" d="M284.4989172384303,-91.98568415879056A299,299,0,0,1,285.23658166428606,-89.67213881955236Q0,0,19.831997143051808,-288.3187331571051L21.729344100832943,-298.2093821544648L22.17287690594399,-288.14816246110934Q0,0,284.4989172384303,-91.98568415879056Z" style="mix-blend-mode: multiply;"><title>Hubei → Beijing 0.001838064</title></path><path fill="#2ca02c" fill-opacity="0.8" d="M74.93925668967147,-289.45657326583466A299,299,0,0,1,77.19092800991437,-288.8642598747173Q0,0,269.3967401422706,-104.62502760199368L279.13775998757313,-107.15927840891814L270.2032678607488,-102.52411441886451Q0,0,74.93925668967147,-289.45657326583466Z" style="mix-blend-mode: multiply;"><title>Fujian → Henan 0.001784383</title></path><path fill="#1f77b4" fill-opacity="0.8" d="M298.18722821985443,-22.031271560226667A299,299,0,0,1,298.345928464223,-19.76630893264476Q0,0,1.385476973584013,-288.99667896630865L2.5686518174295583,-298.98896639816127L3.5799746946794166,-288.9778257603608Q0,0,298.18722821985443,-22.031271560226667Z" style="mix-blend-mode: multiply;"><title>Jiangsu → Anhui 0.001753386</title></path><path fill="#ff7f0e" fill-opacity="0.8" d="M-21.14665604383395,-298.2512681249885A299,299,0,0,1,-19.71814225374068,-298.3491157453986Q0,0,268.53808121177116,-106.80963879304241L278.0938560177242,-109.83991644749769L269.04649404892655,-105.52243382324419Q0,0,-21.14665604383395,-298.2512681249885Z" style="mix-blend-mode: multiply;"><title>unknown → Henan 0.001303307</title></path><path fill="#ff7f0e" fill-opacity="0.8" d="M-24.872424084955053,297.96369329188104A299,299,0,0,1,-26.18689080189241,297.8510479251832Q0,0,17.598205734457572,-288.46369469125176L18.865514039897153,-298.4042432339233L18.87082630127916,-288.38323792257233Q0,0,-24.872424084955053,297.96369329188104Z" style="mix-blend-mode: multiply;"><title>Tianjin → Beijing 0.001242891</title></path><path fill="#ff7f0e" fill-opacity="0.8" d="M-18.723537497782733,-298.4131852709748A299,299,0,0,1,-17.431840835510638,-298.49142521199065Q0,0,277.2251216498408,81.6531195131636L286.6342045293969,85.09895882911746L276.86913354719854,82.85217491909039Q0,0,-18.723537497782733,-298.4131852709748Z" style="mix-blend-mode: multiply;"><title>unknown → Liaoning 0.001229356</title></path><path fill="#17becf" fill-opacity="0.8" d="M4.846634733792371,298.9607167033107A299,299,0,0,1,3.8410609258141504,298.97532716089495Q0,0,1.653204905599356,288.9952714380291L1.2075750644805343,298.9975614657478L0.6811676704598258,288.9991972490663Q0,0,4.846634733792371,298.9607167033107Z" style="mix-blend-mode: multiply;"><title>Sichuan → Sichuan 0.00107459</title></path><path fill="#7f7f7f" fill-opacity="0.8" d="M239.03666538640996,179.61757319634813A299,299,0,0,1,238.4619484245841,180.37987458015098Q0,0,288.8219129637689,-10.144091479728548L298.8321248457437,-10.01804173368436L288.8528296918463,-9.221864183193052Q0,0,239.03666538640996,179.61757319634813Z" style="mix-blend-mode: multiply;"><title>Shanghai → Jiangsu 0.001047217</title></path><path fill="#ff7f0e" fill-opacity="0.8" d="M-16.436774417205292,-298.547872956345A299,299,0,0,1,-15.589197919172992,-298.5933303143874Q0,0,288.7538015764773,-11.926528209515638L298.7624958038031,-11.91516265447169L288.78649482342354,-11.106773050745858Q0,0,-16.436774417205292,-298.547872956345Z" style="mix-blend-mode: multiply;"><title>unknown → Jiangsu 0.000990395</title></path><path fill="#1f77b4" fill-opacity="0.8" d="M298.4101585628053,-18.77171453334547A299,299,0,0,1,298.46000406028804,-17.961792124753124Q0,0,267.88727265022925,-108.43158742738083L277.308700502684,-111.8073549705594L268.18055786493187,-107.70417068644068Q0,0,298.4101585628053,-18.77171453334547Z" style="mix-blend-mode: multiply;"><title>Jiangsu → Henan 0.000970356</title></path><path fill="#c49c94" fill-opacity="0.8" d="M263.7356818355785,-140.87047287037308A299,299,0,0,1,264.10550609249987,-140.17589540154364Q0,0,255.7227528012239,-134.636078744756L264.7543574171167,-138.9465013184918L256.07619736431235,-133.9626109906557Q0,0,263.7356818355785,-140.87047287037308Z" style="mix-blend-mode: multiply;"><title>Heilongjiang → Heilongjiang 0.000957177</title></path><path fill="#ff7f0e" fill-opacity="0.8" d="M-14.593802054717646,-298.64363536092264A299,299,0,0,1,-13.913744557445495,-298.6760916317042Q0,0,-272.14635447894983,97.24896782906127L-281.6775513309456,100.29335509495391L-272.367087498064,96.62903108187487Q0,0,-14.593802054717646,-298.64363536092264Z" style="mix-blend-mode: multiply;"><title>unknown → Yunnan 0.000900255</title></path><path fill="#d62728" fill-opacity="0.8" d="M106.41491689870638,-279.4223782402573A299,299,0,0,1,107.03250305176225,-279.1863952460336Q0,0,288.6832370596177,-13.527329403123094L298.68756688498604,-13.665188923940795L288.7124423697649,-12.888972840578642Q0,0,106.41491689870638,-279.4223782402573Z" style="mix-blend-mode: multiply;"><title>Guangdong → Jiangsu 0.000889685</title></path><path fill="#ff7f0e" fill-opacity="0.8" d="M-27.179580307132046,297.7621037243124A299,299,0,0,1,-27.743969387780748,297.7100471307777Q0,0,-27.81775259912919,287.65808286980854L-29.062368147979182,297.5842380866825L-28.36298734892901,287.6048347101357Q0,0,-27.179580307132046,297.7621037243124Z" style="mix-blend-mode: multiply;"><title>Tianjin → Tianjin 0.00083905</title></path><path fill="#9edae5" fill-opacity="0.8" d="M-280.6326909421743,103.18087407341572A299,299,0,0,1,-280.75964444949,102.83492620990187Q0,0,-271.69950033414585,98.49051486399838L-281.16360684339503,101.72524852175484L-271.82067993036327,98.15558039253293Q0,0,-280.6326909421743,103.18087407341572Z" style="mix-blend-mode: multiply;"><title>Yunnan → Yunnan 0.000732641</title></path><path fill="#f7b6d2" fill-opacity="0.8" d="M293.3868439314282,-57.66419866742107A299,299,0,0,1,293.4474349989937,-57.35505986843171Q0,0,283.8650985171443,-54.2365729360914L293.71693945600316,-55.958551416191796L283.9220835882077,-53.9374679692215Q0,0,293.3868439314282,-57.66419866742107Z" style="mix-blend-mode: multiply;"><title>Inner Mongolia → Inner Mongolia 0.000703937</title></path><path fill="#ff9896" fill-opacity="0.8" d="M40.93286652340287,-296.18490920061623A299,299,0,0,1,41.06898312570334,-296.1660659579701Q0,0,2.749324666849092,288.98692221946004L2.7757526969561446,298.9871154363768L2.616511508675844,288.9881552374162Q0,0,40.93286652340287,-296.18490920061623Z" style="mix-blend-mode: multiply;"><title>Chongqing → Sichuan 0.000608622</title></path><path fill="#e377c2" fill-opacity="0.8" d="M268.6653204965328,131.22479019794747A299,299,0,0,1,268.6233110797765,131.31076400865857Q0,0,267.4893459688023,-109.40955074024572L276.76314200047125,-113.15106376003278L267.52434643355394,-109.32394095210722Q0,0,268.6653204965328,131.22479019794747Z" style="mix-blend-mode: multiply;"><title>Shandong → Henan 0.000586229</title></path><path fill="#aec7e8" fill-opacity="0.8" d="M14.66139562006898,-298.6403246021405A299,299,0,0,1,14.717202247748679,-298.63757961448664Q0,0,16.582647967516657,-288.52385652903195L17.184332960323673,-298.5057766622092L16.6365640984067,-288.5207526938047Q0,0,14.66139562006898,-298.6403246021405Z" style="mix-blend-mode: multiply;"><title>Beijing → Beijing 0.000564862</title></path><path fill="#9467bd" fill-opacity="0.8" d="M275.4946310889132,-116.20545701981305Q0,0,267.12864002432457,-110.28730515682581L276.37184556149845,-114.10347488543569L267.12864002432457,-110.28730515682581Q0,0,275.4946310889132,-116.20545701981305Z" style="mix-blend-mode: multiply;"><title>Henan → Henan 0.000518937</title></path><path fill="#ff7f0e" fill-opacity="0.8" d="M-12.954464884927333,-298.71923580436726Q0,0,15.655958762595885,-288.5756243261442L16.197687439502317,-298.56094004677203L15.655958762595885,-288.5756243261442Q0,0,-12.954464884927333,-298.71923580436726Z" style="mix-blend-mode: multiply;"><title>unknown → Beijing 0.000495789</title></path><path fill="#1f77b4" fill-opacity="0.8" d="M298.5143902024232,-17.034049491398616Q0,0,288.6397977863591,-14.424532361561067L298.62733404194245,-14.92365112839709L288.6397977863591,-14.424532361561067Q0,0,298.5143902024232,-17.034049491398616Z" style="mix-blend-mode: multiply;"><title>Jiangsu → Jiangsu 0.000462608</title></path><path fill="#d62728" fill-opacity="0.8" d="M-292.24255630689896,63.208292835742654Q0,0,288.59753476220556,-15.246735033362055L298.5836086294099,-15.774303719637558L288.59753476220556,-15.246735033362055Q0,0,-292.24255630689896,63.208292835742654Z" style="mix-blend-mode: multiply;"><title>Zhejiang → Jiangsu 0.000451629</title></path><path fill="#ff7f0e" fill-opacity="0.8" d="M-12.194420804290289,-298.7512277819924Q0,0,125.50544018439572,-260.325535597492L129.84818897970354,-269.3333395974052L125.50544018439572,-260.325535597492Q0,0,-12.194420804290289,-298.7512277819924Z" style="mix-blend-mode: multiply;"><title>unknown → Guizhou 0.000320712</title></path><path fill="#2ca02c" fill-opacity="0.8" d="M285.4675315132799,-88.93418044663451Q0,0,266.84804114034904,-110.96451207281815L276.08153737357907,-114.80411456668729L266.84804114034904,-110.96451207281815Q0,0,285.4675315132799,-88.93418044663451Z" style="mix-blend-mode: multiply;"><title>Hubei → Henan 0.00029508</title></path><path fill="#d62728" fill-opacity="0.8" d="M-292.383300283288,62.554022376283875Q0,0,266.6533947789587,-111.43144552978207L275.8801558439746,-115.28720489067419L266.6533947789587,-111.43144552978207Q0,0,-292.383300283288,62.554022376283875Z" style="mix-blend-mode: multiply;"><title>Zhejiang → Henan 0.000266684</title></path><path fill="#1f77b4" fill-opacity="0.8" d="M0.23377235385148765,-298.9999086128398Q0,0,0.6778610889464439,-288.99920502372333L0.7013164899480511,-298.99917751589373L0.6778610889464439,-288.99920502372333Q0,0,0.23377235385148765,-298.9999086128398Z" style="mix-blend-mode: multiply;"><title>Anhui → Anhui 0.000250915</title></path><path fill="#ff7f0e" fill-opacity="0.8" d="M-11.663470746235106,-298.77242752662386Q0,0,270.09482356768467,102.80946591603944L279.4406652136253,106.36688688199237L270.09482356768467,102.80946591603944Q0,0,-11.663470746235106,-298.77242752662386Z" style="mix-blend-mode: multiply;"><title>unknown → Qinghai 0.000249627</title></path><path fill="#98df8a" fill-opacity="0.8" d="M287.2902061803296,82.85733179908527Q0,0,277.4163735050138,81.00096117532615L287.0155559792357,83.80376260007793L277.4163735050138,81.00096117532615Q0,0,287.2902061803296,82.85733179908527Z" style="mix-blend-mode: multiply;"><title>Liaoning → Liaoning 0.000219825</title></path><path fill="#98df8a" fill-opacity="0.8" d="M287.17846257015077,83.24380238699159Q0,0,288.7666761292306,11.610631217812742L298.75860263889257,12.012383163065778L288.7666761292306,11.610631217812742Q0,0,287.17846257015077,83.24380238699159Z" style="mix-blend-mode: multiply;"><title>Liaoning → Jilin 0.000211977</title></path><path fill="#bcbd22" fill-opacity="0.8" d="M279.81006453554016,105.39130791776356Q0,0,270.2397336139906,102.42795700510382L279.5905894483847,105.97217697067835L270.2397336139906,102.42795700510382Q0,0,279.81006453554016,105.39130791776356Z" style="mix-blend-mode: multiply;"><title>Qinghai → Qinghai 0.000203559</title></path><path fill="#2ca02c" fill-opacity="0.8" d="M77.852826214623,-288.6865730344862Q0,0,288.5659467119223,-15.833331874624362L298.55092756700617,-16.381198029455653L288.5659467119223,-15.833331874624362Q0,0,77.852826214623,-288.6865730344862Z" style="mix-blend-mode: multiply;"><title>Fujian → Jiangsu 0.000200713</title></path><path fill="#ff7f0e" fill-opacity="0.8" d="M-11.24659609688897,-298.78841021069314Q0,0,85.11234908967614,-276.18270769987953L88.05741307201788,-285.73920277599996L85.11234908967614,-276.18270769987953Q0,0,-11.24659609688897,-298.78841021069314Z" style="mix-blend-mode: multiply;"><title>unknown → Gansu 0.000198146</title></path><path fill="#c7c7c7" fill-opacity="0.8" d="M298.793849828678,11.101139786411412Q0,0,288.7805433107663,11.260453149791585L298.77294965369936,11.650088206877799L288.7805433107663,11.260453149791585Q0,0,298.793849828678,11.101139786411412Z" style="mix-blend-mode: multiply;"><title>Jilin → Jilin 0.00017719</title></path><path fill="#ff7f0e" fill-opacity="0.8" d="M-10.911677841394438,-298.80082879183186Q0,0,14.938589701962307,288.6136492574744L15.455495920023287,298.6002807196707L14.938589701962307,288.6136492574744Q0,0,-10.911677841394438,-298.80082879183186Z" style="mix-blend-mode: multiply;"><title>unknown → Shanxi 0.000161579</title></path><path fill="#ff7f0e" fill-opacity="0.8" d="M-10.627272606220771,-298.811079240635Q0,0,283.7497536503866,-54.836824336798756L293.56808422652455,-56.7342923069302L283.7497536503866,-54.836824336798756Q0,0,-10.627272606220771,-298.811079240635Z" style="mix-blend-mode: multiply;"><title>unknown → Inner Mongolia 0.00014388</title></path><path fill="#9467bd" fill-opacity="0.8" d="M275.73224012229775,-115.64052817736318Q0,0,15.208780764096954,288.59953740030426L15.735036153858095,298.58568056294456L15.208780764096954,288.59953740030426Q0,0,275.73224012229775,-115.64052817736318Z" style="mix-blend-mode: multiply;"><title>Henan → Shanxi 0.000138869</title></path><path fill="#9467bd" fill-opacity="0.8" d="M87.76548164089863,-285.8290052327459Q0,0,270.3459467527536,102.14729107694103L279.70047778226063,105.6817994187037L270.3459467527536,102.14729107694103Q0,0,87.76548164089863,-285.8290052327459Z" style="mix-blend-mode: multiply;"><title>Gansu → Qinghai 0.000129683</title></path><path fill="#ff7f0e" fill-opacity="0.8" d="M-10.38378418207463,-298.81963962574497Q0,0,288.7907657519559,10.995163318428455L298.78352581257724,11.375618796574768L288.7907657519559,10.995163318428455Q0,0,-10.38378418207463,-298.81963962574497Z" style="mix-blend-mode: multiply;"><title>unknown → Jilin 0.000117625</title></path><path fill="#8c564b" fill-opacity="0.8" d="M244.26789951250643,-172.43605559090025Q0,0,236.29236626385315,-166.39386300410558L244.4685727089692,-172.1514361184345L236.29236626385315,-166.39386300410558Q0,0,244.26789951250643,-172.43605559090025Z" style="mix-blend-mode: multiply;"><title>Hebei → Hebei 0.0000996724</title></path><path fill="#98df8a" fill-opacity="0.8" d="M287.09816702929237,83.52031183143735Q0,0,15.122835821223147,-288.60405374270874L15.646117337528445,-298.59035318017277L15.122835821223147,-288.60405374270874Q0,0,287.09816702929237,83.52031183143735Z" style="mix-blend-mode: multiply;"><title>Liaoning → Beijing 0.0000970692</title></path><path fill="#d62728" fill-opacity="0.8" d="M-292.45303026406657,62.22720537968071Q0,0,14.952811237591138,-288.61291280206603L15.470209550310555,-298.5995187813763L14.952811237591138,-288.61291280206603Q0,0,-292.45303026406657,62.22720537968071Z" style="mix-blend-mode: multiply;"><title>Zhejiang → Beijing 0.0000919941</title></path><path fill="#d62728" fill-opacity="0.8" d="M107.57694271846083,-278.9770624896409Q0,0,14.788065629028313,-288.62140099956474L15.299763401659051,-298.608300688131L14.788065629028313,-288.62140099956474Q0,0,107.57694271846083,-278.9770624896409Z" style="mix-blend-mode: multiply;"><title>Guangdong → Beijing 0.0000911936</title></path><path fill="#ff7f0e" fill-opacity="0.8" d="M-10.209153833930095,-298.8256568268447Q0,0,236.20440167682335,-166.5187095448853L244.3775643646027,-172.28060260872215L236.20440167682335,-166.5187095448853Q0,0,-10.209153833930095,-298.8256568268447Z" style="mix-blend-mode: multiply;"><title>unknown → Hebei 0.0000699223</title></path><path fill="#ff7f0e" fill-opacity="0.8" d="M-10.08842205591029,-298.8297571200395Q0,0,-282.72719480731945,59.88600267494933L-292.5101427245277,61.95818269830398L-282.72719480731945,59.88600267494933Q0,0,-10.08842205591029,-298.8297571200395Z" style="mix-blend-mode: multiply;"><title>unknown → Zhejiang 0.0000597375</title></path><path fill="#17becf" fill-opacity="0.8" d="M16.026808585059378,298.5701616146159Q0,0,15.386039029108268,288.59014155545015L15.91842792284904,298.57595960235153L15.386039029108268,288.59014155545015Q0,0,16.026808585059378,298.5701616146159Z" style="mix-blend-mode: multiply;"><title>Shanxi → Shanxi 0.0000582473</title></path><path fill="#d62728" fill-opacity="0.8" d="M107.70018983211915,-278.9295056284392Q0,0,259.33813846580966,127.53325031962653L268.31177647500726,131.94616555559978L259.33813846580966,127.53325031962653Q0,0,107.70018983211915,-278.9295056284392Z" style="mix-blend-mode: multiply;"><title>Guangdong → Shandong 0.0000505978</title></path><path fill="#bcbd22" fill-opacity="0.8" d="M283.2640065578465,95.72096211800354Q0,0,273.7654092130241,92.59320017380038L283.2382607428865,95.79711713483154L273.7654092130241,92.59320017380038Q0,0,283.2640065578465,95.72096211800354Z" style="mix-blend-mode: multiply;"><title>Ningxia → Ningxia 0.0000348332</title></path><path fill="#ff9896" fill-opacity="0.8" d="M41.59059816984698,-296.0932659549594Q0,0,40.25385451654215,-286.1828562240601L41.64672145483081,-296.0853772006712L40.25385451654215,-286.1828562240601Q0,0,41.59059816984698,-296.0932659549594Z" style="mix-blend-mode: multiply;"><title>Chongqing → Chongqing 0.0000304155</title></path><path fill="#ff7f0e" fill-opacity="0.8" d="M-28.262179812453596,297.66129945333597Q0,0,259.3676927134176,127.4731343323689L268.34235336094076,131.88396943037475L259.3676927134176,127.4731343323689Q0,0,-28.262179812453596,297.66129945333597Z" style="mix-blend-mode: multiply;"><title>Tianjin → Shandong 0.0000237903</title></path><path fill="#ff7f0e" fill-opacity="0.8" d="M-10.012138828745755,-298.8323226762358Q0,0,288.998537373948,0.9194540329843223L298.99848676405,0.9512690514266864L288.998537373948,0.9194540329843223Q0,0,-10.012138828745755,-298.8323226762358Z" style="mix-blend-mode: multiply;"><title>unknown → Jiangxi 0.0000221859</title></path><path fill="#1f77b4" fill-opacity="0.8" d="M298.53962971935823,-16.585821867742784Q0,0,-282.7124467754647,59.955587214454454L-292.49488438015203,62.03017500734215L-282.7124467754647,59.955587214454454Q0,0,298.53962971935823,-16.585821867742784Z" style="mix-blend-mode: multiply;"><title>Jiangsu → Zhejiang 0.0000192505</title></path><path fill="#8c564b" fill-opacity="0.8" d="M244.33073292363343,-172.3470131711023Q0,0,259.38401139835906,127.43992557631192L268.3592367062608,131.84961158241268L259.38401139835906,127.43992557631192Q0,0,244.33073292363343,-172.3470131711023Z" style="mix-blend-mode: multiply;"><title>Hebei → Shandong 0.0000172989</title></path><path fill="#d62728" fill-opacity="0.8" d="M-292.4736079174059,62.13041663932021Q0,0,-282.7061933577936,59.98506678454072L-292.4884145812467,62.06067463175667L-282.7061933577936,59.98506678454072Q0,0,-292.4736079174059,62.13041663932021Z" style="mix-blend-mode: multiply;"><title>Zhejiang → Zhejiang 0.0000142141</title></path><path fill="#e377c2" fill-opacity="0.8" d="M268.3983073990346,131.77005951783326Q0,0,-282.70090440906864,60.00998788780603L-292.48294262391533,62.08645805693426L-282.70090440906864,60.00998788780603Q0,0,268.3983073990346,131.77005951783326Z" style="mix-blend-mode: multiply;"><title>Shandong → Zhejiang 0.0000140764</title></path><path fill="#c5b0d5" fill-opacity="0.8" d="M116.99883191915346,-275.15863302748414Q0,0,259.3950898910666,127.41737456251975L268.37069853781634,131.8262802567246L259.3950898910666,127.41737456251975Q0,0,116.99883191915346,-275.15863302748414Z" style="mix-blend-mode: multiply;"><title>Guangxi → Shandong 0.000010602</title></path><path fill="#e377c2" fill-opacity="0.8" d="M291.1870855409586,-67.90494248699763Q0,0,259.4032751748583,127.40070968623652L268.3791670494209,131.8090387411236L259.4032751748583,127.40070968623652Q0,0,291.1870855409586,-67.90494248699763Z" style="mix-blend-mode: multiply;"><title>Hunan → Shandong 0.0000100156</title></path><path fill="#2ca02c" fill-opacity="0.8" d="M78.04144932283052,-288.6356391501092Q0,0,75.4552374446647,-278.9758182032437L78.0661453147223,-288.62896070162583L75.4552374446647,-278.9758182032437Q0,0,78.04144932283052,-288.6356391501092Z" style="mix-blend-mode: multiply;"><title>Fujian → Fujian 0.00000899318</title></path><path fill="#d62728" fill-opacity="0.8" d="M-292.47805195942175,62.10949301050361Q0,0,259.4107222231389,127.38554547384672L268.386871781033,131.7933498155023L259.4107222231389,127.38554547384672Q0,0,-292.47805195942175,62.10949301050361Z" style="mix-blend-mode: multiply;"><title>Zhejiang → Shandong 0.00000874483</title></path><path fill="#ff7f0e" fill-opacity="0.8" d="M-9.983743315938161,-298.8332726946607Q0,0,273.7778540622669,92.55639699696661L283.2511362097502,95.75904049167134L273.7778540622669,92.55639699696661Q0,0,-9.983743315938161,-298.8332726946607Z" style="mix-blend-mode: multiply;"><title>unknown → Ningxia 0.00000830892</title></path><path fill="#ff7f0e" fill-opacity="0.8" d="M-9.97202227534236,-298.8336640536673Q0,0,75.4437003925986,-278.9789384005033L78.05420905670236,-288.63218886418855L75.4437003925986,-278.9789384005033Q0,0,-9.97202227534236,-298.8336640536673Z" style="mix-blend-mode: multiply;"><title>unknown → Fujian 0.00000427864</title></path><path fill="#8c564b" fill-opacity="0.8" d="M129.56825731690904,-269.46811814361126Q0,0,125.24177391229419,-260.45248715898606L129.57539930718326,-269.46468394649423L125.24177391229419,-260.45248715898606Q0,0,129.56825731690904,-269.46811814361126Z" style="mix-blend-mode: multiply;"><title>Guizhou → Guizhou 0.00000425294</title></path><path fill="#d62728" fill-opacity="0.8" d="M107.74657930893987,-278.9115893024568Q0,0,266.5597385764854,-111.65529888919626L275.7832589424538,-115.51880404107158L266.5597385764854,-111.65529888919626Q0,0,107.74657930893987,-278.9115893024568Z" style="mix-blend-mode: multiply;"><title>Guangdong → Henan 0.0000027779</title></path><path fill="#7f7f7f" fill-opacity="0.8" d="M298.9985699250091,0.9247609417730277Q0,0,259.4151909958405,127.37644476351039L268.3914951825477,131.78393420169414L259.4151909958405,127.37644476351039Q0,0,298.9985699250091,0.9247609417730277Z" style="mix-blend-mode: multiply;"><title>Jiangxi → Shandong 0.00000251387</title></path><path fill="#ff7f0e" fill-opacity="0.8" d="M-9.967143839145278,-298.83382680628677Q0,0,104.1497368690249,-269.5808455920281L107.75353399252059,-278.9089025329287L104.1497368690249,-269.5808455920281Q0,0,-9.967143839145278,-298.83382680628677Z" style="mix-blend-mode: multiply;"><title>unknown → Guangdong 9.60447e-7</title></path><path fill="#7f7f7f" fill-opacity="0.8" d="M298.9985603820631,0.927841286957611Q0,0,288.99860246603737,0.8987617466878557L298.9985541084608,0.9298607690645981L288.99860246603737,0.8987617466878557Q0,0,298.9985603820631,0.927841286957611Z" style="mix-blend-mode: multiply;"><title>Jiangxi → Jiangxi 7.92374e-7</title></path><path fill="#ff7f0e" fill-opacity="0.8" d="M-9.965675625979074,-298.8338757726737Q0,0,266.43121560144243,111.96163339795328L275.6502888056446,115.83573835982017L266.43121560144243,111.96163339795328Q0,0,-9.965675625979074,-298.8338757726737Z" style="mix-blend-mode: multiply;"><title>unknown → Shaanxi 6.16307e-7</title></path><path fill="#d62728" fill-opacity="0.8" d="M107.74947743617716,-278.9104697070921Q0,0,104.14846236785775,-269.58133797874603L107.75221539096701,-278.9094119572494L104.14846236785775,-269.58133797874603Q0,0,107.74947743617716,-278.9104697070921Z" style="mix-blend-mode: multiply;"><title>Guangdong → Guangdong 5.56797e-7</title></path><path fill="#d62728" fill-opacity="0.8" d="M107.75043484198692,-278.91009983749734Q0,0,-282.69817008773697,60.022867551000466L-292.48011368938876,62.09978338321501L-282.69817008773697,60.022867551000466Q0,0,107.75043484198692,-278.91009983749734Z" style="mix-blend-mode: multiply;"><title>Guangdong → Zhejiang 5.44834e-7</title></path><path fill="#2ca02c" fill-opacity="0.8" d="M285.5493081403813,-88.67126152564632Q0,0,104.14761325352795,-269.5816660190258L107.75133689551853,-278.90975134840386L104.14761325352795,-269.5816660190258Q0,0,285.5493081403813,-88.67126152564632Z" style="mix-blend-mode: multiply;"><title>Hubei → Guangdong 4.54039e-7</title></path><path fill="#2ca02c" fill-opacity="0.8" d="M78.04993853945861,-288.6333436974785Q0,0,-282.6979848120536,60.023740163404575L-292.47992200278213,62.10068618981996L-282.6979848120536,60.023740163404575Q0,0,78.04993853945861,-288.6333436974785Z" style="mix-blend-mode: multiply;"><title>Fujian → Zhejiang 4.45777e-7</title></path><path fill="#e377c2" fill-opacity="0.8" d="M291.18926626068566,-67.89559053844026Q0,0,288.99860549957674,0.8977857762432774L298.9985572469669,0.9288510280164012L288.99860549957674,0.8977857762432774Q0,0,291.18926626068566,-67.89559053844026Z" style="mix-blend-mode: multiply;"><title>Hunan → Jiangxi 2.91417e-7</title></path><path fill="#7f7f7f" fill-opacity="0.8" d="M238.16085108585216,180.77723587349863Q0,0,-282.69785722417845,60.0243410697529L-292.47979000010156,62.101307888775494L-282.69785722417845,60.0243410697529Q0,0,238.16085108585216,180.77723587349863Z" style="mix-blend-mode: multiply;"><title>Shanghai → Zhejiang 2.36387e-7</title></path><path fill="#ff7f0e" fill-opacity="0.8" d="M-9.964961417306489,-298.8338995896409Q0,0,-263.5290364347129,118.63155969552011L-272.64768821446074,122.73645795488068L-263.5290364347129,118.63155969552011Q0,0,-9.964961417306489,-298.8338995896409Z" style="mix-blend-mode: multiply;"><title>unknown → Xinjiang 1.50701e-7</title></path><path fill="#2ca02c" fill-opacity="0.8" d="M78.05035020744505,-288.63323237717304Q0,0,104.14722181793873,-269.58181724219656L107.75093191544526,-278.9099078042103L104.14722181793873,-269.58181724219656Q0,0,78.05035020744505,-288.63323237717304Z" style="mix-blend-mode: multiply;"><title>Fujian → Guangdong 1.19487e-8</title></path><path fill="#9467bd" fill-opacity="0.8" d="M275.7822562829148,-115.52119770632885Q0,0,104.14720540883174,-269.58182358150674L107.7509149385491,-278.90991436287374L104.14720540883174,-269.58182358150674Q0,0,275.7822562829148,-115.52119770632885Z" style="mix-blend-mode: multiply;"><title>Henan → Guangdong 7.58565e-9</title></path><path fill="#9edae5" fill-opacity="0.8" d="M-272.64762298289287,122.73660286067194Q0,0,-263.52897827988727,118.63168888100138L-272.6476280473574,122.7365916104478L-263.52897827988727,118.63168888100138Q0,0,-272.64762298289287,122.73660286067194Z" style="mix-blend-mode: multiply;"><title>Xinjiang → Xinjiang 6.62116e-9</title></path><path fill="#ff7f0e" fill-opacity="0.8" d="M-9.964821090225712,-298.8339042689765Q0,0,281.4505544044326,-65.62457943055749L291.18932791323647,-67.89532612365636L281.4505544044326,-65.62457943055749Q0,0,-9.964821090225712,-298.8339042689765Z" style="mix-blend-mode: multiply;"><title>unknown → Hunan 3.81986e-14</title></path><path fill="#e377c2" fill-opacity="0.8" d="M291.1893279132279,-67.89532612369317Q0,0,281.45055440442457,-65.62457943059168L291.1893279132282,-67.89532612369173L281.45055440442457,-65.62457943059168Q0,0,291.1893279132279,-67.89532612369317Z" style="mix-blend-mode: multiply;"><title>Hunan → Hunan 7.89733e-16</title></path></g></svg>